<svg preserveAspectRatio="xMidYMid meet" data-bbox="36 22.058 127.998 153.942" viewBox="36 22.058 127.998 153.942" height="200" width="200" xmlns="http://www.w3.org/2000/svg" data-type="color" role="presentation" aria-hidden="true" aria-labelledby="svgcid--4zqh9s50jrhk"><defs><style>#comp-kk2skte2 svg [data-color="1"]</style></defs><title id="svgcid--4zqh9s50jrhk"></title>
    <g>
        <path fill="#8a8a8a" d="M36 92.363V79.091c0-16.843 13.757-30.545 30.667-30.545h83.645l-19.801-19.711a4.001 4.001 0 0 1 5.644-5.67l26.667 26.546.004.005c.184.184.349.385.494.601.038.056.062.12.096.178.099.165.198.331.273.511.034.082.05.169.078.253.056.163.116.323.151.495a4.025 4.025 0 0 1 0 1.586c-.034.171-.095.331-.15.493-.029.084-.045.173-.079.255a3.943 3.943 0 0 1-.273.509c-.035.059-.059.123-.097.179a4.07 4.07 0 0 1-.494.601l-.004.005-26.667 26.545a3.993 3.993 0 0 1-2.822 1.165 4 4 0 0 1-2.822-6.835l19.801-19.71H66.667C54.168 56.546 44 66.659 44 79.091v13.272a4 4 0 0 1-8 0zm124 9.274a4 4 0 0 0-4 4v13.272c0 12.432-10.168 22.545-22.667 22.545H49.688l19.801-19.71a4.001 4.001 0 0 0-5.644-5.67l-26.667 26.545-.004.005a4.009 4.009 0 0 0-.494.601c-.038.057-.062.122-.098.18a3.991 3.991 0 0 0-.272.508c-.035.084-.052.174-.081.26-.055.161-.115.319-.149.488a4.025 4.025 0 0 0 0 1.586c.034.168.094.326.148.486.029.087.046.178.081.262.075.178.173.342.271.506.035.06.06.124.098.182.145.216.311.417.494.601l.004.005 26.667 26.546A3.99 3.99 0 0 0 66.665 176a4 4 0 0 0 2.822-6.835l-19.801-19.711h83.645c16.91 0 30.667-13.702 30.667-30.545v-13.272a3.997 3.997 0 0 0-3.998-4z" data-color="1"></path>
    </g>
</svg>